# File created by Blade
# Date/Time:  Tue Jan 27 19:32:46 2015
#---------------------------------------------------------
:version 1.10
:name HOM
:units
  mass 1.0
  length 1.000000
  angle deg
:documentation
     Acclaim Skeleton File
:root
   axis xyz
   order TX TY TZ RX RY RZ
   position 0.000000 0.000000 0.000000
   orientation 0 0 0
:bonedata
   begin
      id 1
      name Spine_dum
      direction 0.000000 1.000000 0.000000
      length 6.116652
      axis 0.0 0.0 0.0 xyz
   end
   begin
      id 2
      name LeftUpLeg_dum
      direction 1.000000 0.000000 0.000000
      length 4.711765
      axis 0.0 0.0 0.0 xyz
   end
   begin
      id 3
      name RightUpLeg_dum
      direction -1.000000 0.000000 0.000000
      length 4.711765
      axis 0.0 0.0 0.0 xyz
   end
   begin
      id 4
      name Spine
      direction 0.000000 1.000000 0.000000
      length 0.000000
      axis 0.0 0.0 0.0 xyz
      dof rx ry rz
   end
   begin
      id 5
      name Spine_dum1
      direction 0.000000 1.000000 0.000000
      length 15.225563
      axis 0.0 0.0 0.0 xyz
   end
   begin
      id 6
      name Spine_dum2
      direction 0.000000 1.000000 0.000000
      length 8.977654
      axis 0.0 0.0 0.0 xyz
   end
   begin
      id 7
      name Spine_dum3
      direction 0.000000 1.000000 0.000000
      length 8.977654
      axis 0.0 0.0 0.0 xyz
   end
   begin
      id 8
      name Head
      direction 0.000000 1.000000 0.000000
      length 4.527550
      axis 0.0 0.0 0.0 xyz
      dof rx ry rz
   end
   begin
      id 9
      name LeftShoulder
      direction 1.000000 0.000000 0.000000
      length 7.110130
      axis 0.0 0.0 -90.0 xyz
      dof rx ry rz
   end
   begin
      id 10
      name LeftArm
      direction 1.000000 0.000000 0.000000
      length 10.398341
      axis 0.0 0.0 -90.0 xyz
      dof rx ry rz
   end
   begin
      id 11
      name LeftForeArm
      direction 1.000000 0.000000 0.000000
      length 8.888997
      axis 0.0 0.0 -90.0 xyz
      dof ry rz rx
   end
   begin
      id 12
      name LeftHand
      direction 0.000000 0.000000 0.000000
      length 0.000000
      axis 0.0 0.0 -90.0 xyz
      dof rx ry rz
   end
   begin
      id 13
      name LeftHand_dum1
      direction 0.000000 0.000000 0.000000
      length 0.000000
      axis 0.0 0.0 -90.0 xyz
   end
   begin
      id 14
      name LeftHand_dum2
      direction 1.000000 0.000000 0.000000
      length 3.937000
      axis 0.0 0.0 -90.0 xyz
   end
   begin
      id 15
      name LeftHandThumb1
      direction 0.000000 0.000000 1.000000
      length 3.937000
      axis 0.0 0.0 -90.0 xyz
      dof rx rz ry
   end
   begin
      id 16
      name RightShoulder
      direction -1.000000 0.000000 0.000000
      length 7.110130
      axis 0.0 0.0 90.0 xyz
      dof rx ry rz
   end
   begin
      id 17
      name RightArm
      direction -1.000000 0.000000 0.000000
      length 10.398341
      axis 0.0 0.0 90.0 xyz
      dof rx ry rz
   end
   begin
      id 18
      name RightForeArm
      direction -1.000000 0.000000 0.000000
      length 8.888997
      axis 0.0 0.0 90.0 xyz
      dof ry rz rx
   end
   begin
      id 19
      name RightHand
      direction 0.000000 0.000000 0.000000
      length 0.000000
      axis 0.0 0.0 90.0 xyz
      dof rx ry rz
   end
   begin
      id 20
      name RightHand_dum1
      direction 0.000000 0.000000 0.000000
      length 0.000000
      axis 0.0 0.0 90.0 xyz
   end
   begin
      id 21
      name RightHand_dum2
      direction -1.000000 0.000000 0.000000
      length 3.937000
      axis 0.0 0.0 90.0 xyz
   end
   begin
      id 22
      name RightHandThumb1
      direction 0.000000 0.000000 1.000000
      length 3.937000
      axis 0.0 0.0 90.0 xyz
      dof rx rz ry
   end
   begin
      id 23
      name LeftUpLeg
      direction 0.000000 -1.000000 0.000000
      length 15.510451
      axis 0.0 0.0 0.0 xyz
      dof rx ry rz
   end
   begin
      id 24
      name LeftLeg
      direction 0.000000 -1.000000 0.000000
      length 14.858061
      axis 0.0 0.0 0.0 xyz
      dof rx ry rz
   end
   begin
      id 25
      name LeftFoot
      direction 0.000000 -0.258819 0.965926
      length 5.128852
      axis 15.0 0.0 0.0 xyz
      dof rx ry rz
   end
   begin
      id 26
      name LeftToeBase
      direction 0.000000 0.000000 1.000000
      length 2.952750
      axis 0.0 0.0 0.0 xyz
      dof rx ry rz
   end
   begin
      id 27
      name RightUpLeg
      direction 0.000000 -1.000000 0.000000
      length 15.510451
      axis 0.0 0.0 0.0 xyz
      dof rx ry rz
   end
   begin
      id 28
      name RightLeg
      direction 0.000000 -1.000000 0.000000
      length 14.858061
      axis 0.0 0.0 0.0 xyz
      dof rx ry rz
   end
   begin
      id 29
      name RightFoot
      direction 0.000000 -0.258819 0.965926
      length 5.128852
      axis 15.0 0.0 0.0 xyz
      dof rx ry rz
   end
   begin
      id 30
      name RightToeBase
      direction 0.000000 0.000000 1.000000
      length 2.952750
      axis 0.0 0.0 0.0 xyz
      dof rx ry rz
   end
:hierarchy
   begin
      root Spine_dum LeftUpLeg_dum RightUpLeg_dum
      Spine_dum Spine
      LeftUpLeg_dum LeftUpLeg
      RightUpLeg_dum RightUpLeg
      Spine Spine_dum1 Spine_dum2 Spine_dum3
      Spine_dum1 Head
      Spine_dum2 LeftShoulder
      Spine_dum3 RightShoulder
      LeftShoulder LeftArm
      LeftArm LeftForeArm
      LeftForeArm LeftHand
      LeftHand LeftHand_dum1 LeftHand_dum2
      LeftHand_dum1 LeftHandThumb1
      RightShoulder RightArm
      RightArm RightForeArm
      RightForeArm RightHand
      RightHand RightHand_dum1 RightHand_dum2
      RightHand_dum1 RightHandThumb1
      LeftUpLeg LeftLeg
      LeftLeg LeftFoot
      LeftFoot LeftToeBase
      RightUpLeg RightLeg
      RightLeg RightFoot
      RightFoot RightToeBase
   end

# File created by Blade
# Date/Time:  Tue Jan 27 19:32:37 2015
# Frame Rate: 120.000 fps
#------------------------------------------------------
:FULLY-SPECIFIED
:DEGREES
131
root 4.067401 32.255044 -0.283486 -4.683685 15.299124 1.603469
Spine 2.049532 34.027630 0.984612
Head 0.753199 -35.574517 11.157323
LeftShoulder 4.797158 -15.191362 25.083955
LeftArm -1.808297 48.723543 -104.975101
LeftForeArm 2.388033 -0.000000 8.684413
LeftHand 10.088324 -0.000000 -5.522763
LeftHandThumb1 -26.253704 0.000000 33.147579
RightShoulder 2.224991 18.514793 -34.290838
RightArm 59.339989 -36.793973 94.146045
RightForeArm -4.700631 -0.000000 113.836745
RightHand 30.741072 -0.000000 -16.426630
RightHandThumb1 -24.326973 -0.000000 -32.862282
LeftUpLeg 9.002537 -8.464645 -3.771666
LeftLeg 3.611936 -0.000000 -0.000000
LeftFoot -17.717149 14.518203 -20.995840
LeftToeBase 16.464377 -0.000000 -0.000000
RightUpLeg 13.889060 -20.776984 -2.478789
RightLeg -1.716756 -0.000000 0.000000
RightFoot -14.298700 -14.993569 15.628284
RightToeBase 10.433655 -0.000000 -0.000000
132
root 4.073398 32.254085 -0.287362 -4.677648 15.294559 1.597607
Spine 2.108418 34.020510 1.050422
Head 0.643597 -35.351755 11.191039
LeftShoulder 4.815505 -15.171707 25.098067
LeftArm -1.810519 48.773134 -104.991038
LeftForeArm 2.300594 -0.000000 8.897489
LeftHand 9.973278 -0.000000 -5.544839
LeftHandThumb1 -26.253704 0.000000 33.147579
RightShoulder 2.189876 18.483286 -34.288320
RightArm 59.359265 -36.872949 94.088216
RightForeArm -5.442263 0.000000 113.642731
RightHand 29.048353 -0.000000 -15.547714
RightHandThumb1 -24.326973 -0.000000 -32.862282
LeftUpLeg 8.988494 -8.432609 -3.772025
LeftLeg 3.616517 -0.000000 -0.000000
LeftFoot -17.719719 14.502412 -20.953499
LeftToeBase 16.453744 -0.000000 -0.000000
RightUpLeg 13.898814 -20.867555 -2.486407
RightLeg -1.772217 -0.000000 0.000000
RightFoot -14.096421 -14.995946 15.289034
RightToeBase 10.296832 -0.000000 -0.000000
133
root 4.081646 32.254491 -0.292736 -4.663338 15.294952 1.617982
Spine 2.160824 34.039956 1.077965
Head 0.550773 -35.177422 11.233940
LeftShoulder 4.811037 -15.143555 25.110716
LeftArm -1.730449 48.918304 -104.972214
LeftForeArm 2.234685 -0.000000 9.044912
LeftHand 10.027780 0.000000 -5.886911
LeftHandThumb1 -26.253704 0.000000 33.147579
RightShoulder 2.175034 18.460936 -34.245663
RightArm 59.292659 -36.877647 94.130101
RightForeArm -5.786274 -0.000000 113.544669
RightHand 28.953213 -0.000000 -15.467901
RightHandThumb1 -24.326973 -0.000000 -32.862282
LeftUpLeg 9.132765 -9.088117 -3.929657
LeftLeg 3.345511 -0.000000 -0.000000
LeftFoot -17.832699 15.121556 -21.194059
LeftToeBase 16.440603 -0.000000 -0.000000
RightUpLeg 13.886242 -20.843188 -2.520829
RightLeg -1.762209 -0.000000 0.000000
RightFoot -14.267577 -14.966409 15.581940
RightToeBase 10.520573 -0.000000 -0.000000
134
root 4.086290 32.254706 -0.296830 -4.644638 15.291216 1.621928
Spine 2.188401 34.030924 1.102139
Head 0.542659 -34.992234 11.222528
LeftShoulder 4.831197 -15.161654 25.109676
LeftArm -1.757757 48.944621 -105.010283
LeftForeArm 2.224242 -0.000000 9.207815
LeftHand 10.148439 -0.000000 -6.026133
LeftHandThumb1 -26.253704 0.000000 33.147579
RightShoulder 2.194066 18.479092 -34.195269
RightArm 59.105107 -36.840777 94.313899
RightForeArm -5.950224 -0.000000 113.442660
RightHand 29.225960 -0.000000 -15.237458
RightHandThumb1 -24.326973 -0.000000 -32.862282
LeftUpLeg 9.137055 -9.163543 -3.955989
LeftLeg 3.296389 -0.000000 -0.000000
LeftFoot -17.834661 15.216319 -21.197635
LeftToeBase 16.437006 -0.000000 -0.000000
RightUpLeg 13.860125 -20.847133 -2.528335
RightLeg -1.757837 -0.000000 0.000000
RightFoot -14.266875 -14.969973 15.583793
RightToeBase 10.397087 -0.000000 -0.000000
135
root 4.086741 32.254631 -0.301192 -4.625597 15.294156 1.603049
Spine 2.225925 34.032140 1.147409
Head 0.460677 -34.879004 11.262819
LeftShoulder 4.841721 -15.160598 25.093488
LeftArm -1.716872 49.019097 -104.984752
LeftForeArm 2.341451 -0.000000 9.362868
LeftHand 10.205448 -0.000000 -5.912338
LeftHandThumb1 -26.253704 0.000000 33.147579
RightShoulder 2.163696 18.479143 -34.176817
RightArm 58.989144 -36.840056 94.431865
RightForeArm -6.295316 -0.000000 113.420170
RightHand 28.868879 0.000000 -15.188151
RightHandThumb1 -24.326973 -0.000000 -32.862282
LeftUpLeg 9.062879 -8.973341 -3.900920
LeftLeg 3.367500 -0.000000 -0.000000
LeftFoot -17.797453 15.033994 -21.128952
LeftToeBase 16.507139 -0.000000 -0.000000
RightUpLeg 13.831244 -20.832267 -2.495498
RightLeg -1.771261 -0.000000 0.000000
RightFoot -14.244745 -14.996661 15.582395
RightToeBase 10.425601 -0.000000 -0.000000
136
root 4.089831 32.255538 -0.305377 -4.601374 15.290458 1.603239
Spine 2.250659 34.060743 1.161422
Head 0.424283 -34.717931 11.264701
LeftShoulder 4.862037 -15.169486 25.079781
LeftArm -1.675683 49.097106 -104.983872
LeftForeArm 2.378412 -0.000000 9.497720
LeftHand 10.196280 -0.000000 -5.912605
LeftHandThumb1 -26.253704 0.000000 33.147579
RightShoulder 2.095693 18.379592 -34.126507
RightArm 58.980922 -36.828961 94.502102
RightForeArm -6.497266 0.000000 113.341879
RightHand 28.708736 -0.000000 -14.936424
RightHandThumb1 -24.326973 -0.000000 -32.862282
LeftUpLeg 9.036952 -8.907061 -3.888787
LeftLeg 3.349723 -0.000000 -0.000000
LeftFoot -17.754933 14.973725 -21.108611
LeftToeBase 16.430501 -0.000000 -0.000000
RightUpLeg 13.797333 -20.834236 -2.490815
RightLeg -1.770265 -0.000000 0.000000
RightFoot -14.234746 -15.005663 15.572643
RightToeBase 10.407516 -0.000000 -0.000000
137
root 4.092481 32.255798 -0.309236 -4.579469 15.273086 1.600313
Spine 2.287860 34.013191 1.192697
Head 0.406686 -34.495484 11.192992
LeftShoulder 4.781392 -15.146723 25.063184
LeftArm -1.630760 49.212270 -104.973084
LeftForeArm 2.463586 -0.000000 9.631996
LeftHand 10.259918 0.000000 -6.144775
LeftHandThumb1 -26.253704 0.000000 33.147579
RightShoulder 2.121115 18.354154 -34.080196
RightArm 58.963887 -36.793583 94.579367
RightForeArm -6.477971 -0.000000 113.246222
RightHand 28.614260 0.000000 -14.704318
RightHandThumb1 -24.326973 -0.000000 -32.862282
LeftUpLeg 9.023212 -8.886499 -3.884553
LeftLeg 3.323860 -0.000000 -0.000000
LeftFoot -17.740599 14.969667 -21.101284
LeftToeBase 16.526768 -0.000000 -0.000000
RightUpLeg 13.764868 -20.823276 -2.480487
RightLeg -1.774244 -0.000000 0.000000
RightFoot -14.221804 -15.021366 15.560159
RightToeBase 10.416841 -0.000000 -0.000000
